<svg xmlns="http://www.w3.org/2000/svg" width="25" height="18" viewBox="0 0 25 18" fill="none">
<path d="M21.9037 2.65333C20.1835 1.29333 18.1193 0.613333 15.9404 0.5L15.5963 0.84C17.5459 1.29333 19.2661 2.2 20.8716 3.44667C18.922 2.42667 16.7431 1.74667 14.4495 1.52C13.7615 1.40667 13.1881 1.40667 12.5 1.40667C11.8119 1.40667 11.2385 1.40667 10.5505 1.52C8.25688 1.74667 6.07798 2.42667 4.12844 3.44667C5.73395 2.2 7.45413 1.29333 9.40367 0.84L9.05963 0.5C6.88073 0.613333 4.81651 1.29333 3.09633 2.65333C1.14679 6.28 0.114679 10.36 0 14.5533C1.72018 16.3667 4.12844 17.5 6.65138 17.5C6.65138 17.5 7.45413 16.5933 8.02752 15.8C6.5367 15.46 5.16055 14.6667 4.24312 13.42C5.04587 13.8733 5.84862 14.3267 6.65138 14.6667C7.68349 15.12 8.7156 15.3467 9.74771 15.5733C10.6651 15.6867 11.5826 15.8 12.5 15.8C13.4174 15.8 14.3349 15.6867 15.2523 15.5733C16.2844 15.3467 17.3165 15.12 18.3486 14.6667C19.1514 14.3267 19.9541 13.8733 20.7569 13.42C19.8395 14.6667 18.4633 15.46 16.9725 15.8C17.5459 16.5933 18.3486 17.5 18.3486 17.5C20.8716 17.5 23.2798 16.3667 25 14.5533C24.8853 10.36 23.8532 6.28 21.9037 2.65333ZM8.7156 12.5133C7.56881 12.5133 6.5367 11.4933 6.5367 10.2467C6.5367 9 7.56881 7.98 8.7156 7.98C9.86239 7.98 10.8945 9 10.8945 10.2467C10.8945 11.4933 9.86239 12.5133 8.7156 12.5133ZM16.2844 12.5133C15.1376 12.5133 14.1055 11.4933 14.1055 10.2467C14.1055 9 15.1376 7.98 16.2844 7.98C17.4312 7.98 18.4633 9 18.4633 10.2467C18.4633 11.4933 17.4312 12.5133 16.2844 12.5133Z" fill="white"/>
</svg>