<svg xmlns="http://www.w3.org/2000/svg" width="58" height="41" viewBox="0 0 58 41" fill="none">
<path d="M50.8165 5.19333C46.8257 1.91333 42.0367 0.273333 36.9817 0L36.1835 0.82C40.7064 1.91333 44.6973 4.1 48.422 7.10667C43.8991 4.64667 38.844 3.00667 33.5229 2.46C31.9266 2.18667 30.5963 2.18667 29 2.18667C27.4037 2.18667 26.0734 2.18667 24.4771 2.46C19.156 3.00667 14.1009 4.64667 9.57798 7.10667C13.3028 4.1 17.2936 1.91333 21.8165 0.82L21.0184 0C15.9633 0.273333 11.1743 1.91333 7.18349 5.19333C2.66055 13.94 0.266055 23.78 0 33.8933C3.99083 38.2667 9.57798 41 15.4312 41C15.4312 41 17.2936 38.8133 18.6239 36.9C15.1651 36.08 11.9725 34.1667 9.84404 31.16C11.7064 32.2533 13.5688 33.3467 15.4312 34.1667C17.8257 35.26 20.2202 35.8067 22.6147 36.3533C24.7431 36.6267 26.8716 36.9 29 36.9C31.1284 36.9 33.2569 36.6267 35.3853 36.3533C37.7798 35.8067 40.1743 35.26 42.5688 34.1667C44.4312 33.3467 46.2936 32.2533 48.156 31.16C46.0275 34.1667 42.8349 36.08 39.3761 36.9C40.7064 38.8133 42.5688 41 42.5688 41C48.422 41 54.0092 38.2667 58 33.8933C57.7339 23.78 55.3395 13.94 50.8165 5.19333ZM20.2202 28.9733C17.5596 28.9733 15.1651 26.5133 15.1651 23.5067C15.1651 20.5 17.5596 18.04 20.2202 18.04C22.8807 18.04 25.2752 20.5 25.2752 23.5067C25.2752 26.5133 22.8807 28.9733 20.2202 28.9733ZM37.7798 28.9733C35.1193 28.9733 32.7248 26.5133 32.7248 23.5067C32.7248 20.5 35.1193 18.04 37.7798 18.04C40.4404 18.04 42.8349 20.5 42.8349 23.5067C42.8349 26.5133 40.4404 28.9733 37.7798 28.9733Z" fill="white"/>
</svg>