<svg xmlns="http://www.w3.org/2000/svg" width="48" height="48" viewBox="0 0 48 48" fill="none">
<path d="M33.0275 17.1533C31.3761 15.7933 29.3945 15.1133 27.3028 15L26.9725 15.34C28.844 15.7933 30.4954 16.7 32.0367 17.9467C30.1651 16.9267 28.0734 16.2467 25.8716 16.02C25.211 15.9067 24.6606 15.9067 24 15.9067C23.3394 15.9067 22.789 15.9067 22.1284 16.02C19.9266 16.2467 17.8349 16.9267 15.9633 17.9467C17.5046 16.7 19.156 15.7933 21.0275 15.34L20.6972 15C18.6055 15.1133 16.6239 15.7933 14.9725 17.1533C13.1009 20.78 12.1101 24.86 12 29.0533C13.6514 30.8667 15.9633 32 18.3853 32C18.3853 32 19.156 31.0933 19.7064 30.3C18.2752 29.96 16.9541 29.1667 16.0734 27.92C16.844 28.3733 17.6147 28.8267 18.3853 29.1667C19.3761 29.62 20.367 29.8467 21.3578 30.0733C22.2385 30.1867 23.1193 30.3 24 30.3C24.8807 30.3 25.7615 30.1867 26.6422 30.0733C27.633 29.8467 28.6239 29.62 29.6147 29.1667C30.3853 28.8267 31.156 28.3733 31.9266 27.92C31.0459 29.1667 29.7248 29.96 28.2936 30.3C28.844 31.0933 29.6147 32 29.6147 32C32.0367 32 34.3486 30.8667 36 29.0533C35.8899 24.86 34.8991 20.78 33.0275 17.1533ZM20.367 27.0133C19.2661 27.0133 18.2752 25.9933 18.2752 24.7467C18.2752 23.5 19.2661 22.48 20.367 22.48C21.4679 22.48 22.4587 23.5 22.4587 24.7467C22.4587 25.9933 21.4679 27.0133 20.367 27.0133ZM27.633 27.0133C26.5321 27.0133 25.5413 25.9933 25.5413 24.7467C25.5413 23.5 26.5321 22.48 27.633 22.48C28.7339 22.48 29.7248 23.5 29.7248 24.7467C29.7248 25.9933 28.7339 27.0133 27.633 27.0133Z" fill="white"/>
</svg>