<svg xmlns="http://www.w3.org/2000/svg" width="48" height="48" viewBox="0 0 48 48" fill="none">
<path d="M28.5718 20.5666L29.8582 22.1736C30.0054 22.3566 30.1334 22.499 30.191 22.5872C30.575 22.994 30.7926 23.5432 30.7926 24.1128C30.7542 24.7841 30.3446 25.2452 29.9606 25.7401L29.0582 26.8589L28.591 27.4421C28.5718 27.4624 28.5654 27.4895 28.559 27.5166C28.5526 27.5438 28.559 27.5709 28.5718 27.5912C28.5846 27.6183 28.5974 27.6387 28.623 27.6523C28.6422 27.6658 28.6678 27.6726 28.6934 27.6726H33.3911C34.108 27.6726 35.0104 28.31 34.9592 29.2796C34.9592 29.7203 34.7864 30.1407 34.492 30.4526C34.1912 30.7645 33.788 30.9408 33.3655 30.9408H26.0053C25.5189 30.9408 24.2196 30.9951 23.8548 29.822C23.778 29.5779 23.7652 29.3135 23.8228 29.0626C23.9316 28.6897 24.098 28.3371 24.3156 28.0252C24.6868 27.4421 25.0836 26.8657 25.4805 26.3029C25.9925 25.5638 26.5109 24.8519 27.0293 24.0992C27.0485 24.0721 27.0549 24.045 27.0549 24.0111C27.0549 23.9772 27.0421 23.9501 27.0293 23.9229L25.1604 21.5972C25.1476 21.5837 25.1348 21.5701 25.1156 21.5565C25.0964 21.5498 25.0772 21.543 25.058 21.543C25.0388 21.543 25.0196 21.5498 25.0004 21.5565C24.9812 21.5633 24.9684 21.5769 24.9556 21.5972C24.4564 22.3024 22.2611 25.4282 21.7939 26.0656C21.3267 26.6962 20.1747 26.7369 19.5346 26.0656L16.6097 23.0008C16.5905 22.9805 16.5649 22.9669 16.5393 22.9601C16.5137 22.9533 16.4881 22.9601 16.4625 22.9669C16.4369 22.9805 16.4177 22.994 16.4049 23.0211C16.3921 23.0415 16.3793 23.0686 16.3857 23.0957V28.988C16.3921 29.4084 16.2769 29.8152 16.0465 30.1611C15.8161 30.5069 15.4961 30.7645 15.1185 30.9069C14.8753 30.9951 14.6193 31.0222 14.3697 30.9815C14.12 30.9408 13.8768 30.8459 13.672 30.6899C13.4608 30.534 13.2944 30.3306 13.1792 30.0933C13.064 29.8559 13 29.5915 13 29.3271V18.729C13.0192 18.3493 13.1472 17.9832 13.3776 17.6781C13.608 17.3797 13.9152 17.1627 14.2672 17.061C14.5681 16.9797 14.8881 16.9797 15.1889 17.061C15.4897 17.1492 15.7649 17.3119 15.9889 17.5492L20.4883 22.2481C20.5011 22.2617 20.5203 22.2753 20.5331 22.2821C20.5523 22.2888 20.5715 22.2888 20.5907 22.2888C20.6099 22.2888 20.6291 22.2821 20.6419 22.2685C20.6611 22.2617 20.6739 22.2482 20.6867 22.2278L23.8804 17.6103C24.0276 17.4204 24.2132 17.2712 24.4244 17.1695C24.6356 17.0678 24.866 17.0068 25.0964 17.0068H33.4039C33.6343 17.0068 33.8584 17.061 34.0632 17.156C34.268 17.2577 34.4536 17.4001 34.6072 17.5763C34.7544 17.7526 34.8696 17.9628 34.9336 18.1934C34.9976 18.4239 35.0168 18.6612 34.9848 18.8986C34.9272 19.3054 34.7288 19.6783 34.428 19.9428C34.1272 20.2072 33.7432 20.3564 33.3463 20.3496H28.6934C28.6678 20.3496 28.6486 20.3564 28.6294 20.3699C28.6102 20.3835 28.591 20.4038 28.5846 20.4242C28.5718 20.4445 28.5718 20.4716 28.5718 20.492C28.5526 20.5191 28.559 20.5462 28.5718 20.5666Z" fill="white"/>
</svg>