<svg xmlns="http://www.w3.org/2000/svg" width="20" height="20" viewBox="0 0 20 20" fill="none">
<path opacity="0.3" fill-rule="evenodd" clip-rule="evenodd" d="M19.0408 3.38803C19.2282 1.95504 18.045 0.771895 16.6121 0.959312C14.6293 1.21863 11.2322 1.93278 9.03475 3.97084C8.3557 4.60064 7.72775 5.35717 7.1681 6.13654L5.61533 5.91471C5.12012 5.84397 4.6205 6.01051 4.26678 6.36423L1.59622 9.03479C0.670168 9.96084 1.19878 11.5467 2.49525 11.7319L4.92617 12.0792C5.03868 12.2961 5.1852 12.4975 5.3624 12.6747L7.32535 14.6377C7.50255 14.8149 7.70397 14.9614 7.92095 15.0739L8.26822 17.5048C8.45343 18.8013 10.0393 19.3299 10.9653 18.4038L13.6359 15.7333C13.9896 15.3796 14.1561 14.8799 14.0854 14.3847L13.8636 12.832C14.6429 12.2723 15.3994 11.6444 16.0292 10.9653C18.0673 8.76788 18.7815 5.37075 19.0408 3.38803Z" fill="white"/>
<path d="M5.09379 14.9061L2.71996 17.2799M3.31342 13.1257L2.1265 14.3126M6.87416 16.6865L5.68725 17.8734" stroke="white" stroke-width="1.5" stroke-linecap="round"/>
<path d="M11.6216 6.00428C10.9661 6.65979 10.9661 7.72259 11.6216 8.37811C12.2771 9.03362 13.3399 9.03362 13.9954 8.37811C14.651 7.72259 14.651 6.65979 13.9954 6.00428C13.3399 5.34876 12.2771 5.34876 11.6216 6.00428Z" fill="white"/>
</svg>